<svg xmlns="http://www.w3.org/2000/svg" width="178.444" height="108.211" viewBox="0 0 178.444 108.211"><defs><style>.a{fill:none;stroke:#fff;stroke-linecap:round;stroke-miterlimit:10;stroke-width:3px;}</style></defs><g transform="translate(0.558 0.5)"><g transform="translate(1.12 1)"><path class="a" d="M18,86.155V17.11A16.083,16.083,0,0,1,31.188,1h119.02A14.375,14.375,0,0,1,158.1,4.653a14.813,14.813,0,0,1,4.566,10.192v72" transform="translate(-2.583 -1)"/><path class="a" d="M1.12,102.52H176.362a12.083,12.083,0,0,1-9.37,12.494H11.806a14.448,14.448,0,0,1-6.229-3.452A14.85,14.85,0,0,1,1.12,102.52Z" transform="translate(-1.12 -9.803)"/><path class="a" d="M26.8,109.54H37.33" transform="translate(-3.347 -10.411)"/><path class="a" d="M48.88,109.54H68.607" transform="translate(-5.261 -10.411)"/><path class="a" d="M40.9,33.22h79.4" transform="translate(-4.569 -3.794)"/><path class="a" d="M40.9,82.54h79.4" transform="translate(-4.569 -8.07)"/><path class="a" d="M47,40.78V82.864" transform="translate(-5.098 -4.449)"/><path class="a" d="M121.72,40.78V82.864" transform="translate(-11.577 -4.449)"/><path class="a" d="M47,26.47l.082,6.165" transform="translate(-5.098 -3.208)"/><path class="a" d="M121.48,26.74v5.918" transform="translate(-11.556 -3.232)"/><path class="a" d="M53.92,53.08h55.345" transform="translate(-5.698 -5.516)"/><path class="a" d="M67.72,65.135V53.08" transform="translate(-6.895 -5.516)"/><path class="a" d="M67.71,72.16l-.11,9.48" transform="translate(-6.884 -7.17)"/><path class="a" d="M96.64,53.08V79.986" transform="translate(-9.402 -5.516)"/><path class="a" d="M67.48,45.113l.11-11.873" transform="translate(-6.874 -3.795)"/><circle class="a" cx="2.959" cy="2.959" r="2.959" transform="translate(83.922 6.395) rotate(-22.5)"/><path class="a" d="M146.65,68.59h11.425" transform="translate(-13.739 -6.861)"/><path class="a" d="M136.57,68.5h4.283" transform="translate(-12.865 -6.853)"/><path class="a" d="M138.82,75.34v7.416" transform="translate(-13.06 -7.446)"/><path class="a" d="M148.27,75.34v7.416" transform="translate(-13.879 -7.446)"/><path class="a" d="M157.18,75.34v7.416" transform="translate(-14.652 -7.446)"/></g></g></svg>