<svg xmlns="http://www.w3.org/2000/svg" width="183.618" height="163.09" viewBox="0 0 183.618 163.09"><defs><style>.a{fill:none;stroke:#fff;stroke-linecap:round;stroke-miterlimit:10;stroke-width:3px;}</style></defs><g transform="translate(1.48 1.39)"><g transform="translate(0.74 0.69)"><path class="a" d="M.74,84.119,13.468,95.668,90.386,25.125l78.982,70.542c3.182-3.575,7.519-7.371,10.7-11.057l-30.713-29.2c0-13.882-1.155-27.47-1.155-41.352H122.192q-.147,8.821-.283,17.642L90.816.69Z" transform="translate(-0.74 -0.69)"/><path class="a" d="M17.83,71.952v72.09H156.47l-.209-72.692" transform="translate(3.166 15.458)"/><path class="a" d="M94.579,140.962V96.98A18.059,18.059,0,0,0,59.873,99.02q-.147,20.971-.283,41.942" transform="translate(12.709 18.538)"/></g></g></svg>