<svg xmlns="http://www.w3.org/2000/svg" width="157.146" height="98.091" viewBox="0 0 157.146 98.091"><defs><style>.a{fill:none;stroke:#fff;stroke-linecap:round;stroke-miterlimit:10;stroke-width:3px;}</style></defs><g transform="translate(1 1.129)"><g transform="translate(0.5 0.51)"><path class="a" d="M11.553,74.54H.5V57.9H105.751l.34-53.644h25.464l23.087,37.724-.34,30.557-3.772,2.037H136.949" transform="translate(-0.5 9.887)"/><path class="a" d="M76.9,22.89H14.58" transform="translate(38.536 61.537)"/><path class="a" d="M28.4,18.47V35.144" transform="translate(76.851 49.283)"/><path class="a" d="M3.65,19.749,18.74.51,40.016.963l36.14,24.9L86.945,47.628,72.874,68.263h-24.9L77.1,27.6" transform="translate(8.233 -0.51)"/><path class="a" d="M34.99.63Q20.2,21.341,5.49,42.127l37.422,25.8" transform="translate(13.334 -0.177)"/><path class="a" d="M3.47,5.85C6,13.093,8.563,20.374,11.015,27.655" transform="translate(7.734 14.295)"/><path class="a" d="M32,7.36H51.39" transform="translate(86.831 18.481)"/><path class="a" d="M32,7.36v27.5H67.31" transform="translate(86.831 18.481)"/><circle class="a" cx="10.525" cy="10.525" r="10.525" transform="translate(11.053 73.902)"/><circle class="a" cx="10.525" cy="10.525" r="10.525" transform="translate(32.066 73.902)"/><circle class="a" cx="10.525" cy="10.525" r="10.525" transform="translate(115.436 73.902)"/></g></g></svg>