<svg xmlns="http://www.w3.org/2000/svg" width="130.778" height="162.333" viewBox="0 0 130.778 162.333"><defs><style>.a,.b{fill:none;stroke:#fff;stroke-miterlimit:10;stroke-width:3px;}.a{stroke-linecap:round;}</style></defs><g transform="translate(0.263)"><g transform="translate(1.496 1.5)"><path class="a" d="M23.36,54.088h84.159a9.616,9.616,0,0,0-8.767-13.15A29.039,29.039,0,0,0,98.1,29.322C94.5,16.008,82.2,10.008,79.9,8.94" transform="translate(-3.394 -2.146)"/><path class="b" d="M108.146,54.088H23.987a9.616,9.616,0,0,1,8.767-13.132,28.7,28.7,0,0,1,.658-11.616C37,16.008,49.309,10.008,51.6,8.94" transform="translate(-3.391 -2.146)"/><path class="a" d="M62.24,17.718,62.678,1.5H76.7V18.394" transform="translate(-6.77 -1.5)"/><path class="a" d="M38.221,64.317C36.112,83.348,51.006,99.3,67.589,99.384c16.867.082,32.135-16.355,29.587-35.724" transform="translate(-4.667 -6.896)"/><path class="a" d="M10.285,104.548c4.566.913,8.456-1.141,9.2-3.726.913-3.251-3.123-7.114-6.959-7.835-4.895-.913-10.867,2.95-11.031,8.219-.1,3.361,2.164,6.685,5.717,8.347H66.391" transform="translate(-1.496 -9.43)"/><path class="a" d="M1.57,103.26l5.872,22.83" transform="translate(-1.503 -10.334)"/><path class="a" d="M126.18,104.548c-4.566.913-8.447-1.141-9.2-3.726-.913-3.251,3.123-7.114,6.958-7.835,4.895-.913,10.867,2.95,11.031,8.219.1,3.361-2.164,6.685-5.717,8.347H73.16" transform="translate(-7.718 -9.43)"/><path class="a" d="M140.221,103.26q-2.94,11.4-5.881,22.83" transform="translate(-13.029 -10.334)"/><path class="a" d="M8.48,134c2.393,2.21,6.091,4.858,10.739,5.041,5.415.219,7.653-3.087,10.739-1.753,4.173,1.826,6.191,10.483,3.068,16.876-.256.53-3.507,6.913-9.643,7.452-6.895.6-12.3-6.621-14.027-12.273a19.387,19.387,0,0,1,1.187-13.625" transform="translate(-2.103 -13.002)"/><path class="a" d="M130.172,134c-2.393,2.21-6.091,4.858-10.739,5.041-5.415.219-7.653-3.087-10.739-1.753-4.173,1.826-6.191,10.483-3.068,16.876.256.53,3.507,6.913,9.643,7.452,6.895.6,12.3-6.621,14.027-12.273a19.387,19.387,0,0,0-1.187-13.625" transform="translate(-10.404 -13.002)"/><path class="a" d="M21.44,170.46l4.566,5.041H65.711" transform="translate(-3.228 -16.168)"/><path class="a" d="M114.064,170.46,109.5,175.5H69.92" transform="translate(-7.436 -16.168)"/></g></g></svg>