<svg xmlns="http://www.w3.org/2000/svg" width="137.723" height="137.728" viewBox="0 0 137.723 137.728"><defs><style>.a{fill:none;}.a,.b{stroke:#fff;stroke-linecap:round;stroke-miterlimit:10;stroke-width:3px;}.b{fill:#231f20;}</style></defs><g transform="translate(1.62 1)"><g transform="translate(0.5 0.5)"><path class="a" d="M7.28,1V133.071" transform="translate(17.381 0.819)"/><path class="a" d="M15.56.77V48.237" transform="translate(39.218 0.212)"/><path class="a" d="M21.41,5.81V34.29" transform="translate(54.646 13.504)"/><path class="a" d="M25.73,3.74V52.189" transform="translate(66.039 8.045)"/><path class="a" d="M30.5.5V134.389" transform="translate(78.619 -0.5)"/><path class="a" d="M7.28,5.87H91.738" transform="translate(17.381 13.662)"/><path class="a" d="M7.28,10.49H37.4" transform="translate(17.381 25.847)"/><path class="a" d="M15.5,13.94H37.324" transform="translate(39.06 34.945)"/><path class="a" d="M21.51,14,36.859,25.312h17.35" transform="translate(54.91 35.104)"/><rect class="a" width="7.347" height="7.347" rx="0.47" transform="translate(39.319 59.106)"/><rect class="a" width="7.347" height="7.347" rx="0.47" transform="translate(55.687 59.106)"/><rect class="a" width="7.347" height="7.347" rx="0.47" transform="translate(39.319 75.22)"/><rect class="a" width="7.347" height="7.347" rx="0.47" transform="translate(55.687 75.22)"/><rect class="a" width="7.347" height="7.347" rx="0.47" transform="translate(39.319 91.333)"/><rect class="a" width="7.347" height="7.347" rx="0.47" transform="translate(55.687 91.333)"/><rect class="a" width="7.347" height="7.347" rx="0.47" transform="translate(39.319 107.446)"/><rect class="a" width="7.347" height="7.347" rx="0.47" transform="translate(55.687 107.446)"/><rect class="a" width="7.347" height="7.347" rx="0.47" transform="translate(72.564 75.22)"/><rect class="a" width="7.347" height="7.347" rx="0.47" transform="translate(88.932 75.22)"/><rect class="a" width="7.347" height="7.347" rx="0.47" transform="translate(72.564 91.333)"/><rect class="a" width="7.347" height="7.347" rx="0.47" transform="translate(88.932 91.333)"/><rect class="a" width="7.347" height="7.347" rx="0.47" transform="translate(72.564 107.446)"/><rect class="a" width="7.347" height="7.347" rx="0.47" transform="translate(88.932 107.446)"/><path class="b" d="M.5,37.37H134.062" transform="translate(-0.5 96.738)"/><path class="a" d="M.5,45.783c2-2.146,4.547-4.874,7.529-7.966s3.637-3.637,5.238-3.637a9.2,9.2,0,0,1,6.656,3.274A19.568,19.568,0,0,1,25.161,45.2" transform="translate(-0.5 88.325)"/><path class="a" d="M54.072,46.73a43.286,43.286,0,0,0-4.8-6.911c-3.055-3.637-4.8-5.674-6.947-5.965-3.637-.509-8.439,4.838-11.494,12.876" transform="translate(79.49 87.377)"/></g></g></svg>